<svg width="33" height="34" viewBox="0 0 33 34" fill="none" xmlns="http://www.w3.org/2000/svg">
<g filter="url(#filter0_d_62_539)">
<g clip-path="url(#clip0_62_539)">
<path d="M5.77502 13.6543C5.77502 13.6543 9.77502 5.6543 16.775 5.6543C23.775 5.6543 27.775 13.6543 27.775 13.6543C27.775 13.6543 23.775 21.6543 16.775 21.6543C9.77502 21.6543 5.77502 13.6543 5.77502 13.6543Z" stroke="#0A2640" stroke-width="2" stroke-linecap="round" stroke-linejoin="round"/>
<path d="M16.775 16.6543C18.4319 16.6543 19.775 15.3112 19.775 13.6543C19.775 11.9974 18.4319 10.6543 16.775 10.6543C15.1182 10.6543 13.775 11.9974 13.775 13.6543C13.775 15.3112 15.1182 16.6543 16.775 16.6543Z" stroke="#0A2640" stroke-width="2" stroke-linecap="round" stroke-linejoin="round"/>
</g>
</g>
<defs>
<filter id="filter0_d_62_539" x="-1" y="0" width="36" height="36" filterUnits="userSpaceOnUse" color-interpolation-filters="sRGB">
<feFlood flood-opacity="0" result="BackgroundImageFix"/>
<feColorMatrix in="SourceAlpha" type="matrix" values="0 0 0 0 0 0 0 0 0 0 0 0 0 0 0 0 0 0 127 0" result="hardAlpha"/>
<feOffset dy="4"/>
<feGaussianBlur stdDeviation="2"/>
<feComposite in2="hardAlpha" operator="out"/>
<feColorMatrix type="matrix" values="0 0 0 0 0 0 0 0 0 0 0 0 0 0 0 0 0 0 0.25 0"/>
<feBlend mode="normal" in2="BackgroundImageFix" result="effect1_dropShadow_62_539"/>
<feBlend mode="normal" in="SourceGraphic" in2="effect1_dropShadow_62_539" result="shape"/>
</filter>
<clipPath id="clip0_62_539">
<rect width="24" height="24" fill="white" transform="translate(4.77502 1.6543)"/>
</clipPath>
</defs>
</svg>
